<?xml version="1.0" encoding="UTF-8" standalone="no"?><!DOCTYPE svg PUBLIC "-//W3C//DTD SVG 1.1//EN" "http://www.w3.org/Graphics/SVG/1.1/DTD/svg11.dtd"><svg width="100%" height="100%" viewBox="0 0 120 120" version="1.1" xmlns="http://www.w3.org/2000/svg" xmlns:xlink="http://www.w3.org/1999/xlink" xml:space="preserve" xmlns:serif="http://www.serif.com/" style="fill-rule:evenodd;clip-rule:evenodd;stroke-linejoin:round;stroke-miterlimit:2;"><g id="Ebene1"><path d="M25.763,6.82l80.789,0l-8.706,28.237l-2.981,0c0.994,-4.131 1.49,-7.817 1.49,-11.059c0,-3.818 -1.176,-6.694 -3.529,-8.628c-1.778,-1.464 -6.354,-2.197 -13.727,-2.197l-8.392,0l-21.021,73.26c-2.667,9.203 -4.001,14.877 -4.001,17.021c0,1.987 0.837,3.621 2.51,4.902c1.674,1.281 4.628,1.922 8.864,1.922l3.608,-0l-0.942,2.902l-46.277,-0l0.863,-2.902l2.039,-0c4.079,-0 7.216,-0.654 9.413,-1.961c1.516,-0.889 2.889,-2.497 4.117,-4.824c1.229,-2.327 2.942,-7.255 5.138,-14.785l22.041,-75.535l-6.354,0c-6.118,0 -11.046,0.785 -14.785,2.354c-3.739,1.568 -6.759,3.843 -9.059,6.824c-2.301,2.98 -4.184,7.216 -5.648,12.706l-2.902,0l7.452,-28.237Z" style="fill:#fff;fill-rule:nonzero;"/></g></svg>